<?xml version="1.0" encoding="UTF-8" standalone="no"?>
<!DOCTYPE svg PUBLIC "-//W3C//DTD SVG 20010904//EN"
              "http://www.w3.org/TR/2001/REC-SVG-20010904/DTD/svg10.dtd">

<svg xmlns="http://www.w3.org/2000/svg"
     width="25in" height="25in"
     viewBox="0 0 1800 1800">
  <style type="text/css">
  #heropath {
    stroke-dasharray: 5667;
    stroke-dashoffset: 5667;
    animation: dash 3s linear forwards;
  }

  @keyframes dash {
    to {
      stroke-dashoffset: 0;
    }
  }
  </style>
  <path id="heropath"
        fill="none" stroke="black" stroke-width="2"
        d="M 1232.00,901.00
           C 1232.00,901.00 1251.00,902.74 1251.00,902.74
             1254.19,903.94 1260.11,909.36 1263.00,911.75
             1275.60,922.16 1277.03,921.67 1286.00,936.00
             1267.01,946.81 1259.68,946.44 1239.00,950.60
             1239.00,950.60 1213.00,956.85 1213.00,956.85
             1213.00,956.85 1190.00,956.85 1190.00,956.85
             1181.95,956.90 1167.94,952.39 1162.31,946.48
             1158.82,942.82 1161.03,940.42 1158.59,935.00
             1156.96,931.40 1152.42,926.09 1152.09,923.00
             1151.36,916.10 1161.88,913.05 1167.00,912.00
             1165.13,916.35 1161.27,923.34 1161.70,928.00
             1162.21,933.50 1168.59,943.87 1173.17,946.78
             1175.50,948.26 1181.19,950.07 1184.00,951.00
             1188.49,952.48 1201.51,954.30 1206.00,953.66
             1219.42,951.75 1236.04,939.56 1239.33,926.00
             1241.21,918.22 1234.22,908.04 1232.00,901.00 Z
           M 1151.00,923.00
           C 1157.65,930.31 1158.40,933.74 1158.00,943.00
             1149.52,942.31 1148.06,941.68 1141.00,937.00
             1141.00,937.00 1151.00,923.00 1151.00,923.00 Z
           M 1160.00,944.00
           C 1159.57,940.76 1159.08,935.88 1157.73,933.00
             1156.25,929.85 1152.03,925.61 1153.24,922.01
             1154.24,919.07 1160.45,914.66 1163.00,912.58
             1165.37,910.65 1167.30,908.90 1170.00,907.41
             1176.64,903.75 1195.59,897.09 1203.00,897.00
             1216.12,896.85 1247.12,897.45 1259.00,900.34
             1262.80,901.26 1270.17,904.50 1274.00,906.15
             1281.29,909.28 1293.71,916.69 1298.30,923.09
             1302.73,929.27 1303.26,938.93 1305.00,946.00
             1300.70,946.00 1289.53,945.87 1286.31,948.60
             1281.95,952.30 1286.46,958.01 1278.96,960.02
             1267.53,963.09 1255.71,963.00 1244.00,963.00
             1244.00,963.00 1231.00,963.00 1231.00,963.00
             1219.86,962.98 1190.78,958.58 1180.00,955.42
             1169.54,952.37 1155.85,948.86 1148.00,941.00
             1148.00,941.00 1160.00,944.00 1160.00,944.00 Z
           M 1146.00,940.00
           C 1146.00,940.00 1147.00,940.00 1147.00,940.00
             1147.00,940.00 1146.00,941.00 1146.00,941.00
             1146.00,941.00 1146.00,940.00 1146.00,940.00 Z
           M 1304.00,937.00
           C 1302.43,942.63 1306.74,944.14 1311.00,947.00
             1321.31,953.92 1323.48,955.82 1335.00,961.00
             1338.41,962.54 1343.94,966.96 1339.43,970.86
             1337.93,972.16 1331.23,973.77 1329.00,974.42
             1316.48,978.08 1311.79,978.62 1299.00,980.15
             1299.00,980.15 1275.00,982.91 1275.00,982.91
             1275.00,982.91 1263.00,981.28 1263.00,981.28
             1263.00,981.28 1240.00,978.28 1240.00,978.28
             1240.00,978.28 1181.00,969.00 1181.00,969.00
             1168.41,966.48 1163.58,963.77 1152.00,958.99
             1149.55,957.98 1141.34,954.79 1139.85,953.19
             1137.90,951.08 1137.11,941.78 1137.72,939.00
             1138.26,936.54 1140.29,933.20 1141.60,931.00
             1150.48,916.11 1162.90,908.32 1179.00,903.00
             1192.46,898.55 1197.70,896.07 1212.00,896.00
             1212.00,896.00 1231.00,895.00 1231.00,895.00
             1231.00,895.00 1272.00,899.53 1272.00,899.53
             1272.00,899.53 1299.00,910.76 1299.00,910.76
             1312.27,917.28 1317.68,918.98 1329.00,929.17
             1331.16,931.11 1336.36,935.65 1337.40,938.17
             1338.37,940.51 1338.99,951.04 1339.00,954.00
             1339.00,954.00 1323.00,951.23 1323.00,951.23
             1323.00,951.23 1304.00,937.00 1304.00,937.00 Z
           M 713.00,936.00
           C 709.96,929.97 708.08,922.83 708.51,916.00
             709.15,906.03 708.86,903.72 717.00,897.20
             718.60,895.92 721.18,893.80 723.00,892.99
             726.59,891.39 739.42,893.55 744.00,893.92
             758.21,895.05 763.86,894.16 777.00,900.75
             783.52,904.03 786.49,905.72 789.04,913.00
             790.18,916.27 790.04,919.58 790.00,923.00
             789.94,928.00 788.30,936.80 784.58,940.37
             778.94,945.79 765.66,946.36 758.00,947.07
             754.85,947.37 752.20,948.04 749.00,947.82
             730.37,946.49 711.90,942.61 694.00,937.28
             694.00,937.28 648.00,923.00 648.00,923.00
             650.33,918.96 653.19,917.86 657.00,915.33
             668.78,907.51 666.63,908.12 680.00,903.67
             683.81,902.40 687.97,900.27 692.00,901.00
             675.78,906.41 670.28,909.59 657.00,921.00
             657.00,921.00 693.00,933.23 693.00,933.23
             693.00,933.23 713.00,936.00 713.00,936.00 Z
           M 699.00,897.00
           C 699.00,897.00 700.00,897.00 700.00,897.00
             700.00,897.00 699.00,898.00 699.00,898.00
             699.00,898.00 699.00,897.00 699.00,897.00 Z
           M 615.00,927.00
           C 620.07,919.92 637.38,905.25 645.00,901.03
             645.00,901.03 665.00,891.69 665.00,891.69
             678.82,885.34 706.21,874.03 721.00,874.00
             721.00,874.00 736.00,873.03 736.00,873.03
             736.00,873.03 748.00,874.00 748.00,874.00
             748.00,874.00 754.00,874.00 754.00,874.00
             761.06,874.10 765.51,876.53 772.00,878.95
             772.00,878.95 802.00,891.15 802.00,891.15
             817.27,897.71 836.09,906.31 847.96,918.09
             853.57,923.66 854.12,929.58 855.63,937.00
             856.52,939.75 857.53,942.98 855.63,945.35
             852.00,949.13 840.89,949.99 836.00,950.00
             836.00,950.00 816.00,949.32 816.00,949.32
             816.00,949.32 780.00,954.00 780.00,954.00
             780.00,954.00 760.00,955.00 760.00,955.00
             760.00,955.00 750.00,955.82 750.00,955.82
             750.00,955.82 738.00,955.00 738.00,955.00
             738.00,955.00 723.00,955.00 723.00,955.00
             712.55,954.98 702.30,952.79 692.00,951.27
             682.06,949.81 655.84,944.54 647.00,941.46
             647.00,941.46 615.00,927.00 615.00,927.00 Z
           M 629.00,930.00
           C 631.99,926.01 633.49,925.17 637.00,921.91
             648.33,911.39 651.83,910.39 665.00,903.23
             676.06,897.22 696.86,888.09 709.00,885.52
             709.00,885.52 722.00,884.83 722.00,884.83
             736.30,883.47 742.06,884.48 756.00,885.83
             756.00,885.83 764.00,886.52 764.00,886.52
             776.54,889.18 792.40,896.74 804.00,902.22
             804.00,902.22 826.00,912.00 826.00,912.00
             826.00,912.00 841.83,919.07 841.83,919.07
             851.03,925.14 854.97,935.47 855.00,946.00
             848.39,944.81 838.50,943.03 832.00,943.00
             813.01,942.91 800.22,946.47 782.00,948.71
             782.00,948.71 754.00,950.00 754.00,950.00
             754.00,950.00 737.00,950.99 737.00,950.99
             737.00,950.99 707.00,947.16 707.00,947.16
             707.00,947.16 667.00,942.24 667.00,942.24
             667.00,942.24 647.00,936.31 647.00,936.31
             647.00,936.31 629.00,930.00 629.00,930.00 Z
           M 670.00,921.00
           C 673.98,913.77 688.51,906.50 696.00,902.75
             706.00,897.75 717.73,892.77 729.00,891.55
             729.00,891.55 746.00,892.83 746.00,892.83
             746.00,892.83 762.00,894.32 762.00,894.32
             767.62,895.29 787.60,901.77 793.00,904.23
             805.90,910.10 806.93,910.30 818.00,920.16
             825.42,926.78 827.96,926.90 828.00,937.00
             828.00,937.00 761.00,948.00 761.00,948.00
             747.99,948.02 739.65,947.61 727.00,943.48
             727.00,943.48 702.00,932.31 702.00,932.31
             702.00,932.31 670.00,921.00 670.00,921.00 Z
           M 1282.00,702.47
           C 1290.57,701.50 1300.30,708.58 1308.00,712.22
             1308.00,712.22 1316.00,715.90 1316.00,715.90
             1320.64,718.43 1343.59,733.96 1346.82,737.18
             1351.65,742.01 1367.47,767.74 1371.80,775.00
             1373.49,777.83 1378.68,786.26 1379.17,789.00
             1379.73,792.13 1374.91,806.08 1373.66,810.00
             1372.67,813.08 1370.77,821.12 1367.73,822.36
             1365.24,823.37 1356.01,821.17 1353.00,820.61
             1353.00,820.61 1316.00,813.80 1316.00,813.80
             1316.00,813.80 1276.00,802.02 1276.00,802.02
             1276.00,802.02 1254.00,796.29 1254.00,796.29
             1243.70,793.37 1229.49,789.02 1219.00,789.00
             1219.00,789.00 1180.00,789.00 1180.00,789.00
             1171.68,789.11 1166.32,793.20 1159.00,796.74
             1159.00,796.74 1130.00,810.26 1130.00,810.26
             1126.15,812.12 1113.71,819.00 1110.00,818.19
             1106.93,817.52 1102.29,812.29 1100.00,810.00
             1097.55,807.55 1092.67,803.19 1091.64,800.00
             1090.78,797.37 1092.05,792.76 1092.60,790.00
             1093.67,784.64 1096.39,767.71 1098.73,764.00
             1100.70,760.89 1114.69,747.96 1118.00,745.39
             1122.65,741.79 1138.60,736.68 1145.00,734.32
             1145.00,734.32 1181.00,721.08 1181.00,721.08
             1181.00,721.08 1189.00,721.08 1189.00,721.08
             1189.00,721.08 1223.00,717.71 1223.00,717.71
             1223.00,717.71 1282.00,702.47 1282.00,702.47 Z
           M 562.00,819.00
           C 562.00,819.00 562.00,806.00 562.00,806.00
             562.02,794.99 566.92,788.66 571.75,779.00
             571.75,779.00 588.63,746.00 588.63,746.00
             588.63,746.00 608.73,724.00 608.73,724.00
             612.63,719.11 618.61,698.17 621.00,691.00
             622.22,687.34 623.73,681.03 626.30,678.38
             626.30,678.38 652.00,662.19 652.00,662.19
             652.00,662.19 671.00,650.90 671.00,650.90
             671.00,650.90 693.00,644.29 693.00,644.29
             697.66,642.95 705.45,640.40 710.00,640.09
             714.75,639.76 726.71,641.89 732.00,642.75
             760.45,647.41 754.95,646.37 782.00,656.58
             782.00,656.58 859.00,685.42 859.00,685.42
             863.63,687.17 877.71,692.14 881.00,694.51
             884.56,697.08 892.63,707.09 896.00,711.00
             908.30,725.25 915.56,732.59 925.40,749.00
             925.40,749.00 936.39,767.00 936.39,767.00
             938.16,770.02 939.99,772.46 937.58,775.72
             937.58,775.72 918.00,793.00 918.00,793.00
             915.97,794.73 912.83,797.81 910.00,797.72
             907.31,797.63 901.36,792.83 899.00,791.14
             899.00,791.14 876.00,775.37 876.00,775.37
             876.00,775.37 854.00,766.58 854.00,766.58
             854.00,766.58 827.00,756.08 827.00,756.08
             827.00,756.08 803.00,749.00 803.00,749.00
             803.00,749.00 771.00,740.21 771.00,740.21
             767.53,739.99 758.81,742.24 755.00,743.12
             755.00,743.12 728.00,749.00 728.00,749.00
             728.00,749.00 689.00,757.75 689.00,757.75
             689.00,757.75 656.00,770.58 656.00,770.58
             656.00,770.58 622.00,783.97 622.00,783.97
             622.00,783.97 579.00,809.20 579.00,809.20
             579.00,809.20 562.00,819.00 562.00,819.00 Z
           M 831.00,1397.00
           C 831.00,1397.00 872.00,1394.96 872.00,1394.96
             872.00,1394.96 880.00,1394.18 880.00,1394.18
             880.00,1394.18 887.00,1394.91 887.00,1394.91
             887.00,1394.91 918.00,1397.00 918.00,1397.00
             918.00,1397.00 954.00,1397.00 954.00,1397.00
             954.00,1397.00 970.00,1396.00 970.00,1396.00
             970.00,1396.00 999.00,1393.51 999.00,1393.51
             999.00,1393.51 1021.00,1395.05 1021.00,1395.05
             1028.13,1394.43 1033.41,1391.12 1043.00,1391.00
             1043.00,1391.00 1074.00,1391.00 1074.00,1391.00
             1074.00,1391.00 1108.00,1394.72 1108.00,1394.72
             1108.00,1394.72 1129.00,1396.43 1129.00,1396.43
             1129.00,1396.43 1142.00,1399.02 1142.00,1399.02
             1151.71,1400.42 1158.27,1389.84 1163.00,1398.00
             1158.39,1399.60 1147.71,1404.48 1144.00,1404.78
             1138.76,1405.20 1127.05,1402.17 1121.00,1403.53
             1113.82,1405.14 1092.53,1415.14 1077.00,1417.92
             1077.00,1417.92 1068.00,1417.92 1068.00,1417.92
             1068.00,1417.92 1051.00,1419.00 1051.00,1419.00
             1051.00,1419.00 1041.00,1419.82 1041.00,1419.82
             1041.00,1419.82 1003.00,1416.83 1003.00,1416.83
             1003.00,1416.83 964.00,1408.46 964.00,1408.46
             964.00,1408.46 947.00,1406.91 947.00,1406.91
             947.00,1406.91 928.00,1404.72 928.00,1404.72
             928.00,1404.72 889.00,1400.00 889.00,1400.00
             889.00,1400.00 876.00,1401.00 876.00,1401.00
             876.00,1401.00 856.00,1401.00 856.00,1401.00
             845.95,1401.02 840.08,1404.02 831.00,1397.00 Z
           M 750.00,1393.00
           C 755.78,1391.36 757.53,1392.35 763.00,1391.83
             763.00,1391.83 789.00,1390.04 789.00,1390.04
             789.00,1390.04 820.00,1393.08 820.00,1393.08
             820.00,1393.08 827.00,1393.82 827.00,1393.82
             827.00,1393.82 844.00,1391.73 844.00,1391.73
             844.00,1391.73 880.00,1387.17 880.00,1387.17
             886.03,1386.56 902.11,1385.44 907.00,1383.76
             907.00,1383.76 942.00,1369.70 942.00,1369.70
             942.00,1369.70 964.00,1360.20 964.00,1360.20
             966.20,1359.91 969.69,1359.98 972.00,1360.20
             987.04,1360.17 987.80,1368.64 999.00,1373.87
             1002.36,1375.43 1022.65,1377.95 1027.00,1378.00
             1032.09,1378.06 1044.83,1378.62 1049.00,1376.93
             1055.94,1374.11 1068.42,1365.33 1076.00,1366.42
             1076.00,1366.42 1091.58,1371.67 1091.58,1371.67
             1095.35,1371.71 1096.80,1367.58 1103.00,1368.34
             1103.00,1368.34 1149.00,1382.69 1149.00,1382.69
             1155.81,1385.12 1167.33,1388.79 1174.58,1388.06
             1179.86,1387.53 1190.37,1378.41 1198.00,1376.00
             1197.34,1379.27 1195.49,1388.50 1194.07,1391.00
             1194.07,1391.00 1173.21,1415.00 1173.21,1415.00
             1173.21,1415.00 1154.37,1449.00 1154.37,1449.00
             1151.93,1452.40 1144.34,1459.66 1141.00,1463.00
             1138.41,1465.59 1132.78,1471.52 1130.00,1473.27
             1126.12,1475.71 1114.14,1477.00 1109.00,1478.00
             1109.00,1478.00 1057.00,1486.00 1057.00,1486.00
             1057.00,1486.00 1004.00,1485.00 1004.00,1485.00
             1004.00,1485.00 967.00,1480.27 967.00,1480.27
             967.00,1480.27 934.00,1474.96 934.00,1474.96
             934.00,1474.96 901.00,1463.69 901.00,1463.69
             901.00,1463.69 852.00,1439.20 852.00,1439.20
             852.00,1439.20 793.00,1416.42 793.00,1416.42
             775.92,1409.98 775.74,1411.16 760.00,1400.67
             756.14,1398.09 753.20,1396.45 750.00,1393.00 Z
           M 918.00,989.85
           C 920.80,989.09 926.89,988.00 929.14,990.74
             930.23,992.35 929.51,995.15 929.14,997.00
             929.14,997.00 927.54,1010.00 927.54,1010.00
             927.54,1010.00 919.72,1035.00 919.72,1035.00
             916.33,1046.25 913.48,1058.51 908.25,1069.00
             906.32,1072.86 901.36,1084.86 897.79,1086.51
             896.04,1087.16 892.84,1087.02 891.00,1086.51
             877.50,1083.60 880.79,1068.11 882.61,1058.00
             882.61,1058.00 886.10,1041.00 886.10,1041.00
             886.10,1041.00 890.77,1030.42 890.77,1030.42
             891.42,1027.40 888.12,1020.37 893.65,1013.06
             898.14,1007.12 901.86,1010.63 904.92,1006.69
             908.04,1002.65 906.84,995.83 918.00,989.85 Z
           M 729.00,811.42
           C 738.40,810.28 739.94,811.61 748.00,811.96
             748.00,811.96 769.00,813.29 769.00,813.29
             769.00,813.29 803.00,818.92 803.00,818.92
             825.53,822.68 860.36,836.57 879.00,849.62
             900.38,864.58 919.71,893.73 926.40,919.00
             926.40,919.00 930.09,951.00 930.09,951.00
             930.09,951.00 931.91,974.00 931.91,974.00
             931.91,974.00 927.54,1016.00 927.54,1016.00
             925.73,1025.77 913.82,1060.82 909.51,1070.00
             903.81,1082.13 886.98,1104.59 878.00,1115.00
             870.93,1123.19 857.61,1138.82 849.83,1145.47
             849.83,1145.47 841.00,1151.34 841.00,1151.34
             823.67,1162.66 806.90,1171.73 787.00,1177.72
             765.06,1184.33 768.73,1184.19 745.00,1186.08
             741.72,1186.35 739.37,1187.06 736.00,1186.82
             736.00,1186.82 691.00,1180.24 691.00,1180.24
             691.00,1180.24 660.00,1168.51 660.00,1168.51
             660.00,1168.51 646.00,1160.05 646.00,1160.05
             623.82,1146.13 614.06,1137.57 597.60,1117.00
             597.60,1117.00 588.10,1105.00 588.10,1105.00
             588.10,1105.00 568.45,1066.00 568.45,1066.00
             568.45,1066.00 562.66,1049.00 562.66,1049.00
             557.68,1034.67 552.46,1020.12 550.30,1005.00
             550.30,1005.00 548.00,971.00 548.00,971.00
             548.00,971.00 549.00,948.00 549.00,948.00
             549.20,931.32 555.48,914.07 562.14,899.00
             564.96,892.61 567.82,884.62 571.78,879.00
             585.18,859.98 607.93,840.69 629.00,830.63
             637.97,826.35 669.61,817.91 680.00,816.08
             680.00,816.08 716.00,812.00 716.00,812.00
             721.02,811.98 723.91,812.15 729.00,811.42 Z
           M 1130.00,1231.00
           C 1127.92,1227.45 1125.14,1223.29 1121.00,1221.95
             1118.12,1221.01 1114.74,1222.37 1112.00,1223.35
             1105.41,1225.70 1097.16,1231.48 1091.00,1235.32
             1085.27,1238.88 1079.99,1240.38 1075.78,1246.02
             1072.32,1250.65 1067.73,1261.99 1064.79,1264.16
             1062.79,1265.63 1056.63,1267.47 1054.00,1268.33
             1048.69,1270.06 1031.08,1274.54 1026.00,1275.00
             1026.00,1275.00 1018.00,1275.00 1018.00,1275.00
             1011.45,1275.54 999.51,1278.36 996.35,1269.83
             995.21,1266.77 998.12,1262.29 998.26,1259.00
             998.43,1255.16 992.34,1245.96 989.67,1243.13
             985.64,1238.85 974.73,1234.99 969.00,1233.00
             969.00,1233.00 945.00,1224.04 945.00,1224.04
             945.00,1224.04 935.00,1222.72 935.00,1222.72
             932.01,1222.35 930.13,1221.88 927.00,1222.10
             924.46,1222.27 921.39,1223.07 919.00,1223.95
             917.09,1224.65 915.66,1225.32 914.02,1226.57
             900.60,1236.74 917.60,1250.71 919.98,1256.00
             921.54,1259.47 920.01,1265.75 916.73,1267.83
             915.06,1268.88 911.98,1269.13 910.00,1269.68
             906.40,1269.94 905.63,1269.98 902.00,1269.68
             902.00,1269.68 886.00,1269.68 886.00,1269.68
             886.00,1269.68 869.00,1263.20 869.00,1263.20
             865.43,1261.77 859.24,1259.65 856.43,1257.35
             854.35,1255.65 851.54,1252.14 849.75,1250.00
             840.16,1238.50 840.41,1236.76 835.32,1223.00
             832.04,1214.15 829.79,1211.80 830.01,1202.00
             830.21,1193.25 832.22,1178.43 836.84,1171.00
             839.75,1166.31 846.79,1161.07 851.00,1156.99
             851.00,1156.99 863.00,1145.96 863.00,1145.96
             863.00,1145.96 876.00,1133.09 876.00,1133.09
             876.00,1133.09 884.99,1124.99 884.99,1124.99
             892.91,1117.05 901.35,1101.70 908.35,1092.04
             912.21,1086.70 915.59,1085.03 919.68,1080.72
             919.68,1080.72 929.58,1067.00 929.58,1067.00
             936.76,1056.82 939.30,1047.13 944.30,1036.00
             944.30,1036.00 955.30,1011.00 955.30,1011.00
             955.65,1009.14 955.04,1001.06 954.67,999.00
             954.05,995.50 952.54,991.97 949.79,989.63
             944.47,985.12 941.15,987.62 941.00,979.00
             941.00,979.00 940.00,962.00 940.00,962.00
             939.98,959.58 939.60,953.55 940.99,951.70
             943.43,948.45 949.73,949.62 957.00,943.67
             961.74,939.79 964.16,936.24 970.00,933.18
             981.87,926.97 988.19,927.02 1001.00,927.00
             1001.00,927.00 1015.00,926.01 1015.00,926.01
             1024.66,925.80 1030.08,928.66 1039.00,930.49
             1039.00,930.49 1050.00,931.70 1050.00,931.70
             1058.17,934.45 1065.05,944.96 1080.00,949.00
             1080.00,949.00 1081.00,969.00 1081.00,969.00
             1081.00,969.00 1081.91,992.00 1081.91,992.00
             1081.91,992.00 1084.52,1024.00 1084.52,1024.00
             1084.52,1024.00 1101.40,1073.00 1101.40,1073.00
             1101.40,1073.00 1114.46,1103.00 1114.46,1103.00
             1122.93,1116.97 1137.21,1131.38 1147.54,1144.00
             1147.54,1144.00 1161.48,1164.00 1161.48,1164.00
             1171.75,1177.81 1180.70,1183.13 1179.96,1202.00
             1179.80,1206.06 1178.79,1210.06 1177.88,1214.00
             1177.07,1217.51 1176.43,1221.74 1175.05,1225.00
             1170.40,1235.99 1156.05,1250.12 1146.00,1256.23
             1146.00,1256.23 1136.00,1260.85 1136.00,1260.85
             1132.88,1262.19 1124.87,1265.93 1122.00,1266.30
             1116.44,1267.02 1102.87,1263.80 1104.38,1256.00
             1104.76,1254.03 1107.78,1249.82 1109.00,1248.00
             1114.14,1240.34 1120.73,1233.20 1130.00,1231.00 Z
           M 1372.00,844.00
           C 1382.37,848.47 1396.05,855.17 1402.16,865.00
             1407.84,874.15 1406.47,893.68 1404.33,904.00
             1403.84,906.39 1402.37,912.93 1401.07,914.70
             1399.32,917.07 1396.39,917.38 1394.00,918.85
             1386.13,923.69 1381.96,930.29 1389.30,937.79
             1391.08,939.61 1392.89,940.67 1395.00,942.00
             1395.00,942.00 1393.04,956.00 1393.04,956.00
             1392.92,958.76 1393.29,963.60 1392.40,966.00
             1390.63,970.79 1385.12,973.49 1382.74,977.09
             1380.72,980.13 1381.01,983.52 1381.00,987.00
             1380.99,990.53 1380.73,996.82 1381.63,1000.00
             1382.85,1004.27 1385.81,1007.31 1385.60,1012.00
             1385.25,1019.65 1379.84,1028.61 1380.00,1043.00
             1380.00,1043.00 1385.12,1075.00 1385.12,1075.00
             1386.05,1079.95 1386.84,1088.36 1385.12,1093.00
             1385.12,1093.00 1379.08,1056.00 1379.08,1056.00
             1379.08,1056.00 1374.00,1018.00 1374.00,1018.00
             1374.00,1018.00 1374.00,1001.00 1374.00,1001.00
             1374.00,1001.00 1373.04,991.00 1373.04,991.00
             1373.04,991.00 1373.04,981.00 1373.04,981.00
             1373.04,981.00 1372.00,966.00 1372.00,966.00
             1372.00,966.00 1372.00,923.00 1372.00,923.00
             1372.00,923.00 1371.00,906.00 1371.00,906.00
             1371.00,906.00 1371.68,883.00 1371.68,883.00
             1371.68,883.00 1370.17,872.00 1370.17,872.00
             1370.17,872.00 1372.00,844.00 1372.00,844.00 Z
           M 1105.00,1077.00
           C 1103.08,1077.68 1101.09,1078.56 1099.00,1078.10
             1094.84,1077.20 1084.72,1065.83 1082.32,1062.00
             1074.93,1050.18 1070.35,1037.17 1066.00,1024.00
             1062.50,1013.39 1059.14,1003.28 1059.00,992.00
             1058.95,987.24 1058.61,981.10 1061.70,977.15
             1064.75,973.24 1075.42,970.89 1078.18,976.13
             1080.22,979.99 1079.80,985.80 1080.09,990.00
             1080.09,990.00 1082.29,1012.00 1082.29,1012.00
             1085.38,1034.96 1092.18,1057.59 1105.00,1077.00 Z
           M 1270.00,819.42
           C 1282.49,817.90 1296.51,819.64 1309.00,821.06
             1309.00,821.06 1317.00,821.06 1317.00,821.06
             1317.00,821.06 1353.00,828.57 1353.00,828.57
             1353.00,828.57 1365.00,833.40 1365.00,833.40
             1384.30,841.25 1398.04,849.18 1413.00,864.00
             1413.00,864.00 1422.22,873.17 1422.22,873.17
             1424.68,876.24 1434.78,893.34 1436.24,897.00
             1436.24,897.00 1439.67,908.00 1439.67,908.00
             1443.92,920.90 1447.98,919.71 1448.00,934.00
             1448.00,934.00 1448.00,976.00 1448.00,976.00
             1448.00,976.00 1446.90,988.00 1446.90,988.00
             1446.90,988.00 1446.90,996.00 1446.90,996.00
             1446.90,996.00 1435.30,1041.00 1435.30,1041.00
             1435.30,1041.00 1421.68,1073.00 1421.68,1073.00
             1417.57,1080.71 1397.55,1109.18 1391.70,1116.00
             1391.70,1116.00 1381.00,1127.00 1381.00,1127.00
             1376.22,1131.78 1365.12,1142.70 1360.00,1146.37
             1360.00,1146.37 1338.00,1158.25 1338.00,1158.25
             1320.44,1167.05 1318.84,1166.64 1301.00,1172.34
             1301.00,1172.34 1288.00,1176.48 1288.00,1176.48
             1288.00,1176.48 1269.00,1178.09 1269.00,1178.09
             1269.00,1178.09 1243.00,1180.00 1243.00,1180.00
             1236.37,1179.92 1234.19,1178.80 1228.00,1177.42
             1204.87,1172.29 1206.94,1171.72 1186.00,1161.25
             1169.78,1153.14 1155.89,1145.42 1143.32,1131.83
             1143.32,1131.83 1123.00,1104.00 1123.00,1104.00
             1123.00,1104.00 1106.73,1081.00 1106.73,1081.00
             1104.07,1075.34 1108.22,1071.52 1106.03,1065.00
             1102.92,1055.75 1098.25,1053.21 1094.51,1035.00
             1094.51,1035.00 1091.91,1005.00 1091.91,1005.00
             1091.91,1005.00 1090.08,986.00 1090.08,986.00
             1090.08,986.00 1090.96,978.00 1090.96,978.00
             1090.96,978.00 1090.96,967.00 1090.96,967.00
             1091.02,956.93 1094.01,945.95 1096.00,936.00
             1098.87,921.64 1101.05,911.26 1108.17,898.00
             1110.35,893.94 1114.02,889.71 1116.88,886.00
             1119.92,882.05 1126.70,873.25 1130.04,870.18
             1130.04,870.18 1140.00,862.71 1140.00,862.71
             1155.39,851.74 1153.28,853.37 1170.00,845.69
             1170.00,845.69 1189.00,837.09 1189.00,837.09
             1189.00,837.09 1250.00,821.46 1250.00,821.46
             1250.00,821.46 1270.00,819.42 1270.00,819.42 Z
           M 1434.00,920.00
           C 1434.00,920.00 1422.00,921.14 1422.00,921.14
             1422.00,921.14 1402.00,921.14 1402.00,921.14
             1399.95,921.00 1396.93,920.92 1395.00,921.14
             1387.88,923.29 1383.08,928.37 1388.67,934.89
             1392.84,939.74 1395.44,938.63 1401.00,939.17
             1401.00,939.17 1425.00,941.72 1425.00,941.72
             1428.28,942.11 1434.87,941.73 1436.98,944.56
             1438.00,945.93 1438.18,949.25 1438.42,951.00
             1439.25,956.95 1439.07,963.00 1439.00,969.00
             1439.00,969.00 1434.49,1015.00 1434.49,1015.00
             1426.37,1053.71 1402.05,1092.71 1375.04,1121.00
             1375.04,1121.00 1351.99,1145.37 1351.99,1145.37
             1351.99,1145.37 1333.00,1155.25 1333.00,1155.25
             1313.94,1164.77 1302.05,1169.17 1281.00,1172.27
             1273.72,1173.34 1272.78,1173.99 1265.00,1174.00
             1265.00,1174.00 1247.00,1174.00 1247.00,1174.00
             1227.59,1173.77 1206.27,1166.88 1189.00,1158.25
             1189.00,1158.25 1175.00,1151.36 1175.00,1151.36
             1175.00,1151.36 1163.00,1141.15 1163.00,1141.15
             1148.49,1128.38 1148.23,1127.37 1135.87,1113.00
             1128.63,1104.58 1112.47,1085.29 1109.70,1075.00
             1108.13,1069.14 1108.40,1064.70 1107.83,1059.00
             1107.83,1059.00 1105.80,1048.00 1105.80,1048.00
             1105.24,1045.18 1102.95,1035.33 1103.40,1033.13
             1104.17,1029.40 1107.84,1029.77 1110.82,1027.44
             1114.81,1024.32 1116.32,1019.90 1115.55,1015.00
             1114.93,1011.00 1113.06,1006.30 1109.68,1003.85
             1106.37,1001.46 1104.26,1002.91 1100.90,998.86
             1098.95,996.51 1092.28,986.67 1091.51,984.00
             1090.72,981.26 1090.96,969.56 1091.00,966.00
             1091.00,966.00 1092.04,956.00 1092.04,956.00
             1092.04,956.00 1092.04,947.00 1092.04,947.00
             1092.66,942.04 1096.06,927.94 1097.67,923.00
             1097.67,923.00 1105.75,900.00 1105.75,900.00
             1105.75,900.00 1115.13,887.00 1115.13,887.00
             1115.13,887.00 1126.17,873.09 1126.17,873.09
             1134.32,864.59 1152.26,851.95 1163.00,846.78
             1163.00,846.78 1186.00,837.40 1186.00,837.40
             1186.00,837.40 1201.00,831.57 1201.00,831.57
             1209.65,828.96 1233.34,824.01 1242.00,824.00
             1242.00,824.00 1290.00,824.00 1290.00,824.00
             1290.00,824.00 1302.00,824.91 1302.00,824.91
             1332.05,826.97 1341.03,828.45 1369.00,840.58
             1378.69,844.78 1394.30,853.14 1401.96,860.18
             1412.55,869.91 1417.99,879.49 1424.25,892.00
             1428.51,900.52 1433.13,910.39 1434.00,920.00 Z
           M 1099.00,434.00
           C 1099.00,434.00 1125.00,438.58 1125.00,438.58
             1154.03,443.81 1182.73,449.77 1211.00,458.28
             1211.00,458.28 1251.00,470.95 1251.00,470.95
             1251.00,470.95 1287.00,492.40 1287.00,492.40
             1287.00,492.40 1340.00,528.32 1340.00,528.32
             1340.00,528.32 1356.00,543.91 1356.00,543.91
             1363.94,551.31 1373.77,559.71 1380.68,568.00
             1380.68,568.00 1400.98,597.00 1400.98,597.00
             1405.23,603.60 1406.74,611.52 1408.86,619.00
             1408.86,619.00 1418.58,653.00 1418.58,653.00
             1418.58,653.00 1422.65,667.91 1422.65,667.91
             1424.40,671.44 1427.80,673.04 1431.00,675.05
             1431.00,675.05 1448.00,685.60 1448.00,685.60
             1450.61,687.18 1456.38,690.17 1457.22,693.18
             1457.88,695.57 1455.90,699.73 1455.00,702.00
             1452.93,707.22 1448.06,717.81 1448.47,723.00
             1448.47,723.00 1453.72,767.00 1453.72,767.00
             1453.72,767.00 1458.17,813.00 1458.17,813.00
             1458.17,813.00 1461.00,842.00 1461.00,842.00
             1461.11,851.69 1460.10,857.59 1459.05,867.00
             1459.05,867.00 1456.05,892.00 1456.05,892.00
             1455.51,896.83 1455.13,903.82 1453.00,908.00
             1453.00,908.00 1435.33,880.00 1435.33,880.00
             1435.33,880.00 1425.82,866.17 1425.82,866.17
             1425.82,866.17 1409.00,852.65 1409.00,852.65
             1409.00,852.65 1401.80,844.99 1401.80,844.99
             1401.80,844.99 1401.80,822.00 1401.80,822.00
             1401.80,822.00 1402.96,810.00 1402.96,810.00
             1402.96,810.00 1402.96,799.00 1402.96,799.00
             1402.96,799.00 1403.96,784.00 1403.96,784.00
             1403.96,784.00 1397.42,745.00 1397.42,745.00
             1397.42,745.00 1390.70,707.00 1390.70,707.00
             1390.70,707.00 1374.00,671.00 1374.00,671.00
             1374.00,671.00 1393.00,671.00 1393.00,671.00
             1393.00,671.00 1405.00,670.04 1405.00,670.04
             1405.00,670.04 1417.00,670.04 1417.00,670.04
             1417.00,670.04 1403.00,629.00 1403.00,629.00
             1403.00,629.00 1396.92,612.00 1396.92,612.00
             1396.92,612.00 1372.25,582.00 1372.25,582.00
             1351.42,557.11 1324.38,532.64 1297.00,515.09
             1297.00,515.09 1267.00,499.22 1267.00,499.22
             1267.00,499.22 1244.00,487.17 1244.00,487.17
             1244.00,487.17 1181.00,467.97 1181.00,467.97
             1181.00,467.97 1131.00,447.85 1131.00,447.85
             1123.61,444.70 1104.22,438.04 1099.00,434.00 Z
           M 416.00,775.00
           C 416.00,775.00 417.00,797.00 417.00,797.00
             417.00,797.00 417.00,842.00 417.00,842.00
             417.00,842.00 414.20,863.00 414.20,863.00
             414.20,863.00 411.42,870.98 411.42,870.98
             411.42,870.98 404.00,872.00 404.00,872.00
             404.00,872.00 380.00,872.00 380.00,872.00
             380.00,872.00 379.16,888.98 379.16,888.98
             379.79,893.61 383.12,894.15 387.00,895.29
             392.17,896.81 399.56,898.29 404.00,901.00
             404.00,901.00 376.00,894.00 376.00,894.00
             376.00,894.00 376.00,877.00 376.00,877.00
             376.01,875.18 375.85,872.08 377.02,870.60
             378.79,868.37 385.29,869.00 388.00,869.00
             388.00,869.00 408.00,868.00 408.00,868.00
             408.00,868.00 413.00,841.00 413.00,841.00
             413.00,841.00 413.00,811.00 413.00,811.00
             413.00,811.00 416.00,775.00 416.00,775.00 Z
           M 406.00,902.00
           C 406.00,902.00 429.00,909.91 429.00,909.91
             429.00,909.91 450.00,915.44 450.00,915.44
             450.00,915.44 484.00,929.01 484.00,929.01
             484.00,929.01 499.00,935.10 499.00,935.10
             499.00,935.10 543.00,940.00 543.00,940.00
             541.91,946.07 541.01,953.85 541.00,960.00
             541.00,960.00 541.00,987.00 541.00,987.00
             541.03,1006.85 549.12,1033.32 555.95,1052.00
             559.84,1062.64 565.34,1078.28 570.64,1088.00
             570.64,1088.00 584.58,1108.00 584.58,1108.00
             584.58,1108.00 599.18,1127.96 599.18,1127.96
             599.18,1127.96 609.00,1137.01 609.00,1137.01
             622.29,1149.98 630.51,1158.99 647.00,1168.54
             647.00,1168.54 666.00,1177.00 666.00,1177.00
             666.00,1177.00 684.00,1184.64 684.00,1184.64
             684.00,1184.64 698.00,1187.80 698.00,1187.80
             716.72,1191.54 719.70,1192.22 739.00,1192.00
             739.00,1192.00 755.00,1190.28 755.00,1190.28
             779.70,1187.06 805.01,1181.22 827.00,1169.10
             827.00,1169.10 850.00,1151.88 850.00,1151.88
             859.12,1144.86 874.37,1132.31 881.83,1124.00
             881.83,1124.00 891.13,1112.00 891.13,1112.00
             908.33,1089.06 917.19,1069.72 926.69,1043.00
             931.07,1030.70 935.24,1017.90 937.54,1005.00
             940.80,986.72 940.00,967.51 940.00,949.00
             951.37,948.64 959.17,939.37 968.00,933.47
             970.65,931.70 979.75,928.43 983.00,927.61
             983.00,927.61 997.00,926.50 997.00,926.50
             1004.00,925.89 1017.11,925.44 1024.00,926.50
             1024.00,926.50 1037.00,928.71 1037.00,928.71
             1037.00,928.71 1051.00,930.81 1051.00,930.81
             1054.79,932.18 1061.66,937.12 1065.00,939.65
             1065.00,939.65 1070.00,943.34 1070.00,943.34
             1073.08,945.28 1078.03,946.59 1080.07,949.39
             1082.17,952.28 1081.99,957.54 1082.00,961.00
             1082.00,961.00 1082.00,999.00 1082.00,999.00
             1082.00,999.00 1083.73,1014.00 1083.73,1014.00
             1087.05,1037.06 1088.44,1039.25 1096.58,1061.00
             1096.58,1061.00 1103.01,1079.00 1103.01,1079.00
             1103.01,1079.00 1118.10,1107.00 1118.10,1107.00
             1118.10,1107.00 1131.72,1123.00 1131.72,1123.00
             1137.00,1129.08 1141.98,1135.45 1148.00,1140.83
             1148.00,1140.83 1173.00,1160.05 1173.00,1160.05
             1173.00,1160.05 1207.00,1176.91 1207.00,1176.91
             1207.00,1176.91 1226.00,1181.87 1226.00,1181.87
             1238.44,1184.99 1245.86,1186.84 1259.00,1186.85
             1259.00,1186.85 1279.00,1186.85 1279.00,1186.85
             1279.00,1186.85 1304.00,1180.15 1304.00,1180.15
             1304.00,1180.15 1324.00,1174.25 1324.00,1174.25
             1324.00,1174.25 1343.00,1162.33 1343.00,1162.33
             1355.29,1154.18 1367.03,1145.76 1378.00,1135.83
             1378.00,1135.83 1404.00,1107.00 1404.00,1107.00
             1404.00,1107.00 1403.00,1122.00 1403.00,1122.00
             1403.00,1122.00 1402.00,1146.00 1402.00,1146.00
             1402.00,1146.00 1401.00,1165.00 1401.00,1165.00
             1401.00,1165.00 1400.00,1182.00 1400.00,1182.00
             1400.00,1182.00 1399.00,1198.00 1399.00,1198.00
             1399.00,1198.00 1397.00,1239.00 1397.00,1239.00
             1397.00,1239.00 1396.09,1249.00 1396.09,1249.00
             1395.58,1256.42 1396.78,1260.16 1394.43,1268.00
             1394.43,1268.00 1384.93,1292.00 1384.93,1292.00
             1384.93,1292.00 1379.70,1327.00 1379.70,1327.00
             1379.70,1327.00 1367.22,1356.00 1367.22,1356.00
             1364.22,1365.64 1366.75,1386.88 1363.02,1395.00
             1363.02,1395.00 1343.88,1421.00 1343.88,1421.00
             1343.88,1421.00 1323.04,1461.99 1323.04,1461.99
             1318.75,1468.39 1312.18,1470.15 1308.35,1476.09
             1308.35,1476.09 1296.61,1499.00 1296.61,1499.00
             1296.61,1499.00 1283.09,1514.00 1283.09,1514.00
             1283.09,1514.00 1260.28,1539.00 1260.28,1539.00
             1260.28,1539.00 1222.37,1588.00 1222.37,1588.00
             1222.37,1588.00 1189.87,1631.00 1189.87,1631.00
             1189.87,1631.00 1167.96,1659.00 1167.96,1659.00
             1167.96,1659.00 1139.00,1686.39 1139.00,1686.39
             1139.00,1686.39 1089.00,1714.86 1089.00,1714.86
             1056.13,1733.21 1058.67,1730.93 1025.00,1744.40
             1014.06,1748.77 1002.96,1754.98 991.00,1755.00
             991.00,1755.00 971.00,1755.00 971.00,1755.00
             962.54,1754.89 951.25,1750.08 943.00,1747.33
             943.00,1747.33 894.00,1731.00 894.00,1731.00
             894.00,1731.00 810.00,1699.08 810.00,1699.08
             810.00,1699.08 762.00,1684.48 762.00,1684.48
             762.00,1684.48 719.00,1654.56 719.00,1654.56
             719.00,1654.56 694.00,1633.04 694.00,1633.04
             694.00,1633.04 674.00,1620.58 674.00,1620.58
             674.00,1620.58 635.00,1596.80 635.00,1596.80
             635.00,1596.80 613.00,1583.22 613.00,1583.22
             613.00,1583.22 580.00,1551.00 580.00,1551.00
             570.76,1541.76 559.93,1533.54 552.16,1523.00
             552.16,1523.00 519.40,1476.00 519.40,1476.00
             519.40,1476.00 504.58,1437.00 504.58,1437.00
             504.58,1437.00 485.67,1386.00 485.67,1386.00
             485.67,1386.00 466.98,1324.00 466.98,1324.00
             466.98,1324.00 446.58,1256.00 446.58,1256.00
             446.58,1256.00 437.18,1220.00 437.18,1220.00
             437.18,1220.00 442.90,1176.00 442.90,1176.00
             442.90,1176.00 438.00,1142.00 438.00,1142.00
             438.00,1142.00 438.00,1124.00 438.00,1124.00
             438.00,1124.00 437.09,1113.00 437.09,1113.00
             437.09,1113.00 436.54,1104.00 436.54,1104.00
             436.54,1104.00 425.23,1063.00 425.23,1063.00
             423.70,1056.37 423.41,1044.21 422.91,1037.00
             422.91,1037.00 421.01,1012.00 421.01,1012.00
             421.01,1012.00 422.00,1000.00 422.00,1000.00
             422.00,1000.00 422.00,981.00 422.00,981.00
             422.00,981.00 426.05,951.00 426.05,951.00
             425.86,947.13 423.30,940.02 422.14,936.00
             420.76,931.19 416.03,914.33 414.00,911.00
             411.98,907.69 408.68,904.83 406.00,902.00 Z
           M 371.00,678.95
           C 369.26,676.39 365.94,672.10 365.79,669.00
             365.68,666.57 369.03,658.79 370.05,656.00
             370.05,656.00 377.00,633.00 377.00,633.00
             380.30,621.56 380.60,620.85 382.59,609.00
             383.68,602.51 383.56,597.14 388.13,592.01
             390.31,589.57 396.55,583.48 400.00,583.91
             402.26,584.19 405.18,587.09 407.00,588.49
             407.00,588.49 420.00,597.00 420.00,597.00
             426.53,601.26 429.25,602.38 434.00,609.00
             434.00,609.00 411.33,632.00 411.33,632.00
             411.33,632.00 396.67,654.00 396.67,654.00
             396.67,654.00 377.91,683.00 377.91,683.00
             373.90,690.79 376.17,707.64 370.19,715.82
             368.07,718.71 363.07,721.58 360.00,723.72
             360.00,723.72 338.00,739.09 338.00,739.09
             326.19,748.67 316.21,758.19 306.61,770.00
             304.00,773.21 298.44,779.53 297.00,783.00
             297.00,783.00 291.00,815.00 291.00,815.00
             288.97,814.72 285.16,814.36 283.60,813.02
             281.52,811.23 280.73,800.16 280.27,797.00
             277.99,781.19 277.82,779.89 278.91,764.00
             279.24,759.20 278.96,756.01 280.06,751.00
             281.61,743.86 293.26,733.95 298.42,728.00
             298.42,728.00 317.91,708.00 317.91,708.00
             332.07,692.80 328.69,694.08 347.00,683.58
             349.16,682.34 353.82,679.51 356.00,678.95
             356.00,678.95 371.00,678.95 371.00,678.95 Z
           M 1011.00,371.00
           C 1011.00,371.00 992.00,373.00 992.00,373.00
             992.00,373.00 968.00,373.00 968.00,373.00
             968.00,373.00 956.00,373.96 956.00,373.96
             956.00,373.96 941.00,373.96 941.00,373.96
             941.00,373.96 929.00,374.96 929.00,374.96
             929.00,374.96 914.00,374.96 914.00,374.96
             914.00,374.96 851.00,383.73 851.00,383.73
             851.00,383.73 818.00,388.58 818.00,388.58
             818.00,388.58 804.00,390.66 804.00,390.66
             804.00,390.66 776.00,397.85 776.00,397.85
             776.00,397.85 748.00,405.19 748.00,405.19
             748.00,405.19 714.00,417.58 714.00,417.58
             714.00,417.58 679.00,430.80 679.00,430.80
             679.00,430.80 646.00,443.86 646.00,443.86
             646.00,443.86 611.00,461.69 611.00,461.69
             611.00,461.69 598.00,468.45 598.00,468.45
             598.00,468.45 548.00,501.66 548.00,501.66
             548.00,501.66 511.00,526.18 511.00,526.18
             490.05,544.35 470.50,564.28 451.00,584.00
             451.00,584.00 434.72,601.81 434.72,601.81
             429.99,606.04 425.58,601.76 421.00,599.15
             409.00,592.30 400.02,590.42 400.00,575.00
             400.00,575.00 400.00,571.00 400.00,571.00
             400.00,571.00 400.91,561.00 400.91,561.00
             401.75,548.72 400.08,553.35 403.86,540.00
             404.59,537.42 405.88,531.56 407.72,529.82
             409.51,528.14 417.28,526.37 420.00,525.58
             420.00,525.58 447.00,516.66 447.00,516.66
             447.00,516.66 480.00,505.00 480.00,505.00
             480.00,505.00 508.00,495.13 508.00,495.13
             508.00,495.13 536.00,480.75 536.00,480.75
             536.00,480.75 573.00,461.25 573.00,461.25
             573.00,461.25 613.00,442.69 613.00,442.69
             613.00,442.69 646.00,427.43 646.00,427.43
             646.00,427.43 669.00,418.95 669.00,418.95
             669.00,418.95 708.00,404.58 708.00,404.58
             708.00,404.58 772.00,381.16 772.00,381.16
             772.00,381.16 818.00,371.58 818.00,371.58
             841.70,366.37 858.86,363.42 883.00,360.84
             883.00,360.84 911.00,358.00 911.00,358.00
             911.00,358.00 931.00,358.00 931.00,358.00
             931.00,358.00 947.00,359.00 947.00,359.00
             947.00,359.00 960.00,359.00 960.00,359.00
             960.00,359.00 1011.00,369.00 1011.00,369.00
             1011.00,369.00 1011.00,371.00 1011.00,371.00 Z
           M 430.00,608.00
           C 425.21,606.23 421.19,603.55 417.00,600.65
             412.82,597.76 402.15,588.26 400.02,584.00
             399.02,582.00 399.04,580.17 399.00,578.00
             398.85,569.40 399.00,555.26 400.46,547.00
             400.46,547.00 405.68,528.00 405.68,528.00
             407.63,517.04 407.13,497.70 407.00,486.00
             407.00,486.00 406.04,476.00 406.04,476.00
             406.04,476.00 406.04,465.00 406.04,465.00
             406.04,465.00 404.96,450.00 404.96,450.00
             404.96,450.00 404.96,435.00 404.96,435.00
             404.96,435.00 404.00,424.00 404.00,424.00
             404.00,424.00 404.00,405.00 404.00,405.00
             404.00,405.00 403.02,391.00 403.02,391.00
             403.02,391.00 404.15,368.72 404.15,368.72
             404.15,368.72 401.21,349.00 401.21,349.00
             401.21,349.00 403.83,322.00 403.83,322.00
             403.83,322.00 409.62,274.00 409.62,274.00
             409.62,274.00 420.01,254.00 420.01,254.00
             422.22,250.22 428.59,239.12 431.38,236.63
             433.85,234.42 444.29,229.70 448.00,227.69
             457.07,222.78 491.84,203.04 497.79,197.48
             502.47,193.12 502.55,187.32 505.41,182.00
             507.45,178.20 522.92,158.74 526.09,156.60
             529.62,154.20 532.24,155.68 536.00,154.07
             539.68,152.49 541.84,149.30 546.00,148.31
             550.29,147.29 553.59,149.24 559.00,146.15
             559.00,146.15 595.00,119.35 595.00,119.35
             600.05,115.45 609.97,108.37 616.00,106.64
             616.00,106.64 639.00,104.90 639.00,104.90
             643.80,104.42 645.84,102.68 650.00,101.61
             650.00,101.61 661.00,99.96 661.00,99.96
             661.00,99.96 678.00,93.39 678.00,93.39
             678.00,93.39 699.00,91.21 699.00,91.21
             704.17,89.74 708.95,85.98 714.00,85.21
             723.28,83.80 730.06,88.42 737.00,86.69
             742.62,85.29 747.85,77.68 750.81,73.00
             755.47,65.64 762.62,55.13 771.00,51.99
             775.89,50.16 781.10,51.83 786.00,52.80
             786.00,52.80 813.00,58.05 813.00,58.05
             818.68,58.47 835.18,54.25 842.00,53.28
             848.26,52.40 854.68,51.57 861.00,52.17
             861.00,52.17 870.00,53.00 870.00,53.00
             870.00,53.00 884.00,52.07 884.00,52.07
             888.72,52.36 890.61,54.80 894.00,57.72
             894.00,57.72 910.00,72.00 910.00,72.00
             913.10,75.08 917.89,79.64 920.39,83.00
             931.88,98.44 943.22,127.47 949.66,146.00
             949.66,146.00 956.20,166.00 956.20,166.00
             963.88,185.55 965.35,180.43 971.79,191.00
             971.79,191.00 980.91,212.00 980.91,212.00
             980.91,212.00 986.42,233.00 986.42,233.00
             986.42,233.00 1007.01,325.00 1007.01,325.00
             1009.27,335.07 1013.86,341.00 1014.00,353.00
             1014.04,356.55 1013.39,368.23 1015.02,370.69
             1016.86,373.45 1021.09,372.99 1024.00,373.00
             1024.00,373.00 1098.00,374.00 1098.00,374.00
             1098.00,374.00 1115.00,375.00 1115.00,375.00
             1115.00,375.00 1141.00,375.00 1141.00,375.00
             1141.00,375.00 1156.00,376.00 1156.00,376.00
             1156.00,376.00 1166.00,376.00 1166.00,376.00
             1166.00,376.00 1228.00,384.58 1228.00,384.58
             1228.00,384.58 1263.00,390.25 1263.00,390.25
             1263.00,390.25 1282.00,393.42 1282.00,393.42
             1282.00,393.42 1305.00,399.58 1305.00,399.58
             1305.00,399.58 1361.00,416.33 1361.00,416.33
             1361.00,416.33 1411.00,432.33 1411.00,432.33
             1411.00,432.33 1434.00,439.90 1434.00,439.90
             1434.00,439.90 1473.00,462.40 1473.00,462.40
             1473.00,462.40 1512.00,485.21 1512.00,485.21
             1512.00,485.21 1556.00,523.09 1556.00,523.09
             1566.25,532.64 1579.55,546.32 1588.56,557.00
             1588.56,557.00 1604.00,577.00 1604.00,577.00
             1604.00,577.00 1627.22,605.00 1627.22,605.00
             1627.22,605.00 1638.83,626.00 1638.83,626.00
             1638.83,626.00 1641.55,633.00 1641.55,633.00
             1641.55,633.00 1650.24,646.00 1650.24,646.00
             1650.24,646.00 1659.14,675.00 1659.14,675.00
             1662.63,687.32 1663.03,698.33 1663.00,711.00
             1662.98,721.27 1660.17,721.84 1653.00,729.00
             1649.35,732.65 1640.50,741.28 1636.00,743.15
             1632.44,744.63 1624.95,744.99 1621.00,745.00
             1621.00,745.00 1629.35,729.00 1629.35,729.00
             1630.31,725.81 1630.04,715.83 1630.00,712.00
             1629.91,704.75 1627.59,699.77 1625.33,693.00
             1625.33,693.00 1618.34,673.00 1618.34,673.00
             1618.34,673.00 1604.14,652.00 1604.14,652.00
             1604.14,652.00 1577.21,616.00 1577.21,616.00
             1577.21,616.00 1566.83,603.00 1566.83,603.00
             1559.61,594.97 1551.05,588.02 1543.00,580.84
             1543.00,580.84 1489.00,533.92 1489.00,533.92
             1489.00,533.92 1464.00,513.55 1464.00,513.55
             1464.00,513.55 1420.00,492.74 1420.00,492.74
             1420.00,492.74 1381.00,474.45 1381.00,474.45
             1381.00,474.45 1336.00,459.98 1336.00,459.98
             1336.00,459.98 1306.00,450.50 1306.00,450.50
             1306.00,450.50 1264.00,443.59 1264.00,443.59
             1250.01,441.24 1230.64,437.02 1217.00,437.00
             1217.00,437.00 1200.00,436.00 1200.00,436.00
             1200.00,436.00 1182.00,436.00 1182.00,436.00
             1182.00,436.00 1168.00,435.01 1168.00,435.01
             1168.00,435.01 1153.00,436.00 1153.00,436.00
             1153.00,436.00 1080.00,437.00 1080.00,437.00
             1080.00,437.00 1063.00,438.00 1063.00,438.00
             1063.00,438.00 1049.00,438.00 1049.00,438.00
             1049.00,438.00 1023.00,439.91 1023.00,439.91
             1023.00,439.91 992.00,442.46 992.00,442.46
             992.00,442.46 947.00,456.66 947.00,456.66
             947.00,456.66 900.00,471.69 900.00,471.69
             900.00,471.69 861.00,487.58 861.00,487.58
             861.00,487.58 807.00,509.58 807.00,509.58
             807.00,509.58 795.00,514.49 795.00,514.49
             795.00,514.49 762.00,533.58 762.00,533.58
             744.87,543.52 727.78,552.85 712.00,564.88
             712.00,564.88 645.00,616.46 645.00,616.46
             645.00,616.46 607.00,648.87 607.00,648.87
             607.00,648.87 581.00,671.09 581.00,671.09
             581.00,671.09 559.00,693.00 559.00,693.00
             559.00,693.00 514.00,738.00 514.00,738.00
             509.80,742.20 494.79,757.87 491.00,760.07
             488.51,761.51 478.30,764.46 475.00,765.42
             475.00,765.42 465.00,768.48 465.00,768.48
             465.00,768.48 433.00,771.96 433.00,771.96
             429.47,771.82 420.17,770.11 417.00,768.78
             408.84,765.37 391.69,752.21 386.65,745.00
             384.16,741.45 380.42,730.78 378.27,726.00
             376.20,721.39 370.36,713.88 369.95,711.00
             369.63,708.75 370.93,703.47 371.39,701.00
             371.39,701.00 375.42,681.00 375.42,681.00
             376.85,677.00 385.15,665.27 388.00,661.00
             388.00,661.00 399.50,644.00 399.50,644.00
             399.50,644.00 430.00,608.00 430.00,608.00 Z
           M 372.00,714.00
           C 372.00,714.00 384.95,739.00 384.95,739.00
             384.95,739.00 391.65,748.00 391.65,748.00
             400.22,759.07 401.89,759.79 414.00,766.22
             416.66,767.63 422.43,770.96 425.00,771.79
             427.33,772.15 432.40,772.00 435.00,771.79
             435.00,771.79 457.00,771.00 457.00,771.00
             466.46,770.95 472.48,766.96 481.00,763.28
             481.00,763.28 497.00,756.01 497.00,756.01
             501.31,753.32 507.75,746.01 512.00,742.17
             512.00,742.17 549.00,707.04 549.00,707.04
             549.00,707.04 634.00,628.09 634.00,628.09
             634.00,628.09 670.00,595.90 670.00,595.90
             670.00,595.90 710.00,568.58 710.00,568.58
             710.00,568.58 754.00,537.45 754.00,537.45
             754.00,537.45 772.00,528.69 772.00,528.69
             772.00,528.69 792.00,518.75 792.00,518.75
             792.00,518.75 846.00,491.86 846.00,491.86
             846.00,491.86 878.00,479.58 878.00,479.58
             878.00,479.58 905.00,469.34 905.00,469.34
             905.00,469.34 959.00,454.28 959.00,454.28
             959.00,454.28 977.00,451.72 977.00,451.72
             977.00,451.72 1000.00,449.05 1000.00,449.05
             1000.00,449.05 1014.00,449.05 1014.00,449.05
             1014.00,449.05 1026.00,450.00 1026.00,450.00
             1026.00,450.00 1040.00,450.00 1040.00,450.00
             1040.00,450.00 1055.00,448.96 1055.00,448.96
             1055.00,448.96 1066.00,448.96 1066.00,448.96
             1066.00,448.96 1075.00,448.01 1075.00,448.01
             1086.21,447.76 1115.78,455.35 1129.00,457.57
             1129.00,457.57 1179.00,465.24 1179.00,465.24
             1179.00,465.24 1194.00,469.98 1194.00,469.98
             1212.79,475.82 1230.90,481.93 1249.00,489.72
             1249.00,489.72 1261.00,494.78 1261.00,494.78
             1261.00,494.78 1302.00,517.61 1302.00,517.61
             1302.00,517.61 1321.00,534.83 1321.00,534.83
             1325.41,538.82 1337.23,548.89 1340.21,553.00
             1340.21,553.00 1346.20,563.00 1346.20,563.00
             1358.21,583.16 1357.31,585.39 1364.02,607.00
             1364.02,607.00 1372.68,637.00 1372.68,637.00
             1372.68,637.00 1376.35,668.00 1376.35,668.00
             1376.35,668.00 1391.46,703.00 1391.46,703.00
             1394.64,712.22 1399.75,740.45 1401.27,751.00
             1403.33,765.27 1406.17,779.55 1406.00,794.00
             1406.00,794.00 1403.72,823.00 1403.72,823.00
             1403.40,825.63 1402.13,838.18 1402.69,839.96
             1403.74,843.29 1408.21,845.80 1411.00,847.67
             1416.47,851.33 1426.65,857.45 1430.68,862.04
             1433.60,865.36 1445.81,882.32 1447.48,886.00
             1451.60,895.02 1450.19,899.05 1457.00,912.00
             1457.00,912.00 1449.00,912.00 1449.00,912.00
             1447.88,904.11 1446.44,902.92 1443.42,896.00
             1443.42,896.00 1436.28,881.00 1436.28,881.00
             1433.77,876.67 1421.48,860.42 1417.96,857.18
             1413.39,852.97 1398.02,843.57 1392.00,839.66
             1373.47,827.61 1357.14,823.13 1336.00,818.12
             1326.68,815.91 1301.72,810.60 1293.00,811.09
             1293.00,811.09 1283.00,812.00 1283.00,812.00
             1283.00,812.00 1270.00,812.00 1270.00,812.00
             1270.00,812.00 1259.00,812.96 1259.00,812.96
             1259.00,812.96 1248.00,812.96 1248.00,812.96
             1242.53,813.07 1239.25,813.96 1234.00,814.73
             1211.21,818.09 1216.96,817.01 1195.00,824.33
             1185.49,827.50 1154.45,839.88 1147.00,844.76
             1127.10,857.79 1110.58,874.50 1098.45,895.00
             1095.52,899.96 1091.05,911.35 1089.43,917.00
             1088.52,920.16 1087.98,924.98 1084.78,926.60
             1078.56,929.74 1068.29,921.98 1063.00,919.26
             1049.07,912.10 1037.55,909.82 1022.00,910.00
             1010.04,910.14 976.04,915.33 965.00,919.38
             955.80,922.77 948.93,930.95 938.00,933.00
             935.31,919.67 930.39,906.12 924.24,894.00
             912.58,871.00 896.21,854.80 875.00,840.67
             875.00,840.67 863.00,832.98 863.00,832.98
             850.60,826.57 835.33,821.12 822.00,816.98
             804.08,811.40 783.82,806.22 765.00,806.00
             765.00,806.00 750.00,805.00 750.00,805.00
             750.00,805.00 713.00,805.00 713.00,805.00
             713.00,805.00 676.00,809.51 676.00,809.51
             676.00,809.51 659.00,814.58 659.00,814.58
             628.09,823.61 610.84,830.11 586.00,851.72
             579.24,857.60 571.84,864.69 566.63,872.00
             557.62,884.64 554.66,894.76 550.00,909.00
             550.00,909.00 515.00,905.46 515.00,905.46
             515.00,905.46 508.82,902.00 508.82,902.00
             509.04,900.66 509.34,899.64 508.82,898.31
             507.44,896.01 497.99,892.72 496.00,901.00
             496.00,901.00 408.00,880.20 408.00,880.20
             404.26,879.45 386.53,875.47 384.13,876.04
             381.97,876.55 380.61,878.49 380.18,880.58
             379.79,882.49 380.61,885.15 381.15,887.00
             381.84,889.37 382.50,891.60 384.42,893.30
             388.81,897.20 407.68,900.07 413.89,906.13
             418.85,910.96 419.49,917.55 420.80,924.00
             420.80,924.00 425.96,950.00 425.96,950.00
             425.96,950.00 425.00,964.00 425.00,964.00
             425.00,964.00 423.91,987.00 423.91,987.00
             423.91,987.00 423.02,996.00 423.02,996.00
             423.02,996.00 424.83,1018.00 424.83,1018.00
             424.83,1018.00 428.17,1057.00 428.17,1057.00
             428.17,1057.00 432.12,1075.00 432.12,1075.00
             435.23,1088.13 439.84,1106.83 440.00,1120.00
             440.00,1120.00 440.00,1128.00 440.00,1128.00
             440.00,1128.00 446.25,1168.00 446.25,1168.00
             447.01,1172.35 450.03,1186.55 449.52,1190.00
             448.93,1194.02 439.77,1212.52 437.00,1216.00
             437.00,1216.00 415.04,1155.00 415.04,1155.00
             415.04,1155.00 407.41,1124.00 407.41,1124.00
             407.41,1124.00 398.42,1103.00 398.42,1103.00
             392.73,1089.90 392.12,1086.94 383.58,1075.00
             381.80,1072.51 378.45,1067.27 375.91,1065.94
             373.22,1064.42 369.83,1065.44 367.00,1065.94
             367.00,1065.94 347.00,1070.00 347.00,1070.00
             347.00,1070.00 333.00,1010.00 333.00,1010.00
             333.00,1010.00 322.00,1044.00 322.00,1044.00
             322.00,1044.00 327.59,1008.00 327.59,1008.00
             327.59,1008.00 332.86,994.00 332.86,994.00
             332.86,994.00 332.86,987.00 332.86,987.00
             332.86,987.00 333.91,980.00 333.91,980.00
             333.91,980.00 335.37,963.00 335.37,963.00
             335.37,963.00 342.48,943.00 342.48,943.00
             342.48,943.00 337.73,930.00 337.73,930.00
             337.73,930.00 348.43,912.42 348.43,912.42
             348.43,912.42 346.00,898.00 346.00,898.00
             346.00,898.00 325.00,896.00 325.00,896.00
             326.23,905.35 330.90,927.93 327.85,935.90
             326.43,939.63 323.25,940.52 320.00,942.31
             313.11,946.10 310.64,948.85 304.48,941.42
             301.33,937.61 301.35,927.15 300.72,922.00
             298.09,900.68 300.32,906.65 292.20,886.00
             288.18,875.77 289.34,874.92 279.00,869.75
             276.69,868.60 273.54,866.84 271.00,866.56
             271.00,866.56 248.00,871.00 248.00,871.00
             248.00,871.00 279.12,834.00 279.12,834.00
             282.11,828.88 290.56,813.09 292.25,808.00
             292.25,808.00 300.52,781.00 300.52,781.00
             300.52,781.00 313.38,760.01 313.38,760.01
             316.35,756.39 320.58,753.31 324.00,749.99
             338.28,736.07 354.57,723.78 372.00,714.00 Z
           M 401.00,1156.00
           C 401.00,1156.00 384.00,1153.18 384.00,1153.18
             380.02,1153.17 373.81,1154.92 370.00,1154.20
             366.64,1153.56 360.30,1149.18 351.00,1147.46
             351.00,1147.46 333.00,1145.02 333.00,1145.02
             330.32,1143.80 323.47,1138.12 321.00,1136.00
             317.22,1132.76 312.48,1129.05 309.65,1125.00
             306.47,1120.48 302.71,1109.52 300.98,1104.00
             296.32,1089.18 294.75,1083.27 291.80,1068.00
             288.40,1050.39 290.83,1053.65 283.42,1036.00
             283.42,1036.00 279.93,1028.00 279.93,1028.00
             279.93,1028.00 268.65,1014.00 268.65,1014.00
             268.65,1014.00 252.56,993.18 252.56,993.18
             248.81,989.27 245.16,988.11 242.84,984.82
             241.18,982.47 239.41,976.04 238.31,973.00
             233.95,961.03 231.84,963.05 232.00,949.00
             232.07,943.07 234.12,921.85 236.65,917.22
             238.73,913.42 242.77,913.69 248.00,909.61
             248.00,909.61 256.00,902.65 256.00,902.65
             261.13,899.06 271.87,895.52 278.00,897.84
             280.58,898.82 285.83,902.50 288.00,904.32
             290.34,906.30 292.46,908.56 294.32,911.00
             296.48,913.85 297.40,915.47 298.06,919.00
             299.53,926.93 295.02,928.31 290.33,934.00
             286.51,938.62 278.36,951.10 278.69,957.00
             278.69,957.00 286.39,1007.00 286.39,1007.00
             286.39,1007.00 292.02,1041.00 292.02,1041.00
             292.02,1041.00 295.70,1051.00 295.70,1051.00
             295.70,1051.00 297.81,1069.00 297.81,1069.00
             297.81,1069.00 303.92,1093.00 303.92,1093.00
             305.03,1099.32 306.08,1110.82 309.13,1116.00
             314.52,1125.14 320.12,1126.92 328.00,1133.00
             328.00,1133.00 336.00,1126.67 336.00,1126.67
             341.62,1122.02 345.70,1114.84 352.44,1123.30
             356.48,1128.37 353.61,1134.18 360.00,1138.00
             360.00,1134.70 359.61,1120.47 360.57,1118.39
             360.57,1118.39 371.17,1108.43 371.17,1108.43
             376.53,1104.15 392.82,1104.05 391.91,1119.00
             391.91,1119.00 388.00,1136.00 388.00,1136.00
             391.74,1137.43 403.27,1144.07 403.87,1148.09
             404.24,1150.55 402.15,1153.92 401.00,1156.00 Z
           M 321.00,1006.00
           C 318.20,1005.50 311.73,1004.96 309.84,1003.15
             307.55,1000.95 306.48,993.20 306.17,990.00
             305.20,980.01 303.53,959.91 311.14,952.30
             315.16,948.28 326.09,941.61 332.00,942.90
             335.01,943.55 336.83,946.26 340.00,947.40
             342.50,948.30 349.03,947.97 352.00,948.00
             356.57,948.06 362.74,948.11 364.66,953.11
             368.74,963.72 365.66,970.30 366.04,980.00
             366.04,980.00 368.83,1005.00 368.83,1005.00
             368.83,1005.00 370.43,1020.00 370.43,1020.00
             371.66,1024.34 374.74,1026.05 376.57,1030.00
             376.57,1030.00 381.03,1047.00 381.03,1047.00
             381.03,1047.00 388.10,1064.00 388.10,1064.00
             390.12,1070.57 387.75,1074.84 390.24,1082.00
             390.24,1082.00 405.38,1113.00 405.38,1113.00
             407.53,1119.98 406.59,1128.46 409.47,1136.00
             409.47,1136.00 416.75,1151.00 416.75,1151.00
             416.75,1151.00 429.20,1178.00 429.20,1178.00
             431.49,1183.81 434.77,1192.76 433.00,1199.00
             433.00,1199.00 422.06,1176.00 422.06,1176.00
             419.12,1168.31 415.86,1158.19 409.79,1152.33
             405.58,1148.27 390.53,1141.03 387.77,1136.68
             386.75,1135.08 386.86,1133.78 387.06,1132.00
             387.98,1123.71 394.23,1118.81 388.10,1111.14
             386.26,1108.84 384.78,1108.15 382.00,1107.40
             374.52,1105.37 373.20,1109.37 368.00,1113.79
             363.25,1117.82 360.30,1117.26 360.02,1124.00
             359.79,1129.57 360.59,1133.67 362.00,1139.00
             362.00,1139.00 356.00,1142.00 356.00,1142.00
             355.27,1137.95 354.38,1126.99 352.40,1124.17
             348.52,1118.63 340.05,1114.81 335.30,1110.24
             335.30,1110.24 326.17,1096.00 326.17,1096.00
             324.49,1092.58 325.22,1088.67 324.83,1085.00
             324.83,1085.00 321.32,1071.00 321.32,1071.00
             320.85,1068.17 321.26,1064.35 320.40,1062.00
             318.82,1057.65 314.73,1056.02 311.02,1047.00
             307.58,1038.65 308.86,1022.85 313.14,1015.00
             314.83,1011.90 318.47,1008.54 321.00,1006.00 Z
           M 270.00,628.00
           C 268.80,624.08 266.57,620.35 267.14,616.09
             267.60,612.62 269.47,611.91 269.71,608.96
             269.71,608.96 269.71,604.00 269.71,604.00
             269.71,604.00 270.67,598.00 270.67,598.00
             270.67,598.00 270.67,592.00 270.67,592.00
             270.67,592.00 274.20,576.00 274.20,576.00
             274.20,576.00 275.39,565.00 275.39,565.00
             276.29,561.00 278.68,558.73 279.59,555.00
             279.59,555.00 280.30,543.00 280.30,543.00
             280.30,543.00 283.57,535.00 283.57,535.00
             284.32,532.09 283.58,530.18 284.98,527.00
             286.09,524.47 287.60,523.39 288.59,520.00
             288.59,520.00 292.04,499.00 292.04,499.00
             292.04,499.00 311.87,444.00 311.87,444.00
             311.87,444.00 325.66,414.00 325.66,414.00
             325.66,414.00 328.68,404.00 328.68,404.00
             330.75,398.88 336.07,394.49 339.28,389.00
             339.28,389.00 348.21,370.18 348.21,370.18
             352.18,364.19 355.82,366.51 356.00,357.00
             356.00,357.00 356.00,347.00 356.00,347.00
             356.31,320.72 366.39,288.99 378.90,266.00
             378.90,266.00 388.67,251.00 388.67,251.00
             388.67,251.00 402.21,231.09 402.21,231.09
             402.21,231.09 419.00,216.57 419.00,216.57
             423.72,212.53 428.92,206.83 434.00,203.47
             437.91,200.89 440.19,201.22 442.83,199.70
             446.15,197.79 447.71,194.26 451.09,191.39
             453.46,189.38 467.19,181.42 470.00,180.53
             471.96,180.17 473.13,180.47 475.00,180.53
             480.67,180.10 488.73,174.52 494.00,171.98
             494.00,171.98 514.00,164.59 514.00,164.59
             514.00,164.59 526.00,155.65 526.00,155.65
             530.03,153.41 533.36,154.05 537.00,152.49
             540.64,150.93 542.15,148.27 546.00,147.31
             549.04,146.56 553.25,147.62 557.00,146.15
             559.80,145.05 568.17,138.74 571.00,136.63
             581.53,128.73 603.89,109.70 615.00,105.81
             619.38,104.28 630.10,104.06 635.00,104.00
             644.50,103.88 643.99,101.67 650.00,100.39
             654.99,99.33 659.84,100.73 668.00,97.39
             668.00,97.39 677.00,92.56 677.00,92.56
             677.00,92.56 698.00,89.73 698.00,89.73
             698.00,89.73 713.00,83.77 713.00,83.77
             720.89,81.94 729.64,87.04 736.00,85.61
             743.23,83.99 745.48,78.44 749.10,73.00
             749.10,73.00 756.10,64.00 756.10,64.00
             761.13,57.35 765.62,50.07 775.00,49.30
             784.10,48.55 803.14,57.00 814.00,57.00
             825.55,57.00 844.97,49.42 861.00,50.04
             861.00,50.04 870.00,50.92 870.00,50.92
             870.00,50.92 891.00,49.26 891.00,49.26
             891.00,49.26 902.00,50.70 902.00,50.70
             906.33,50.42 905.32,49.02 915.00,49.00
             917.74,49.00 925.56,48.70 927.72,49.57
             930.48,50.69 931.70,53.30 935.00,54.06
             935.00,54.06 959.00,54.06 959.00,54.06
             978.79,54.24 997.90,59.42 1015.00,69.28
             1021.28,72.91 1027.40,77.47 1033.00,82.08
             1035.43,84.09 1040.19,88.49 1043.00,89.19
             1045.15,90.04 1051.09,89.04 1054.00,89.19
             1068.31,88.84 1086.12,90.42 1100.00,93.89
             1100.00,93.89 1131.00,104.33 1131.00,104.33
             1131.00,104.33 1150.00,109.55 1150.00,109.55
             1150.00,109.55 1159.00,113.83 1159.00,113.83
             1159.00,113.83 1170.00,117.53 1170.00,117.53
             1170.00,117.53 1182.00,124.63 1182.00,124.63
             1182.00,124.63 1193.00,129.52 1193.00,129.52
             1193.00,129.52 1221.00,149.32 1221.00,149.32
             1221.00,149.32 1232.00,159.72 1232.00,159.72
             1232.00,159.72 1251.99,177.09 1251.99,177.09
             1251.99,177.09 1261.04,187.00 1261.04,187.00
             1261.04,187.00 1276.83,203.00 1276.83,203.00
             1276.83,203.00 1288.32,217.83 1288.32,217.83
             1288.32,217.83 1301.79,231.00 1301.79,231.00
             1301.79,231.00 1313.44,246.83 1313.44,246.83
             1313.44,246.83 1352.00,279.09 1352.00,279.09
             1357.72,284.42 1371.76,299.77 1376.10,306.00
             1376.10,306.00 1387.04,323.00 1387.04,323.00
             1390.93,328.38 1394.06,329.74 1396.28,333.04
             1396.28,333.04 1400.53,343.00 1400.53,343.00
             1400.53,343.00 1414.51,365.00 1414.51,365.00
             1414.51,365.00 1424.49,388.00 1424.49,388.00
             1424.49,388.00 1433.50,403.00 1433.50,403.00
             1433.50,403.00 1436.66,417.00 1436.66,417.00
             1436.66,417.00 1440.99,431.00 1440.99,431.00
             1441.76,434.59 1441.87,440.96 1443.85,443.62
             1446.26,446.86 1460.70,454.10 1465.00,456.25
             1465.00,456.25 1505.00,479.22 1505.00,479.22
             1514.94,485.61 1526.38,494.06 1535.00,502.09
             1535.00,502.09 1550.00,516.83 1550.00,516.83
             1550.00,516.83 1593.54,560.00 1593.54,560.00
             1593.54,560.00 1605.51,576.00 1605.51,576.00
             1605.51,576.00 1614.48,586.00 1614.48,586.00
             1614.48,586.00 1636.55,618.00 1636.55,618.00
             1641.43,626.21 1641.43,629.86 1643.13,633.00
             1643.13,633.00 1649.59,642.00 1649.59,642.00
             1649.59,642.00 1653.34,652.00 1653.34,652.00
             1661.80,671.83 1663.75,678.38 1663.98,700.00
             1664.07,705.26 1665.47,708.78 1663.98,714.00
             1661.55,722.33 1656.37,727.58 1650.00,733.13
             1650.00,733.13 1638.00,743.30 1638.00,743.30
             1632.66,746.82 1619.46,749.13 1613.00,748.99
             1613.00,748.99 1592.00,746.42 1592.00,746.42
             1592.00,746.42 1578.00,744.34 1578.00,744.34
             1540.51,736.48 1503.14,718.12 1470.00,699.28
             1470.00,699.28 1454.00,689.86 1454.00,689.86
             1443.13,683.80 1432.66,679.17 1423.00,671.00
             1423.00,671.00 1431.63,685.00 1431.63,685.00
             1431.63,685.00 1440.69,709.00 1440.69,709.00
             1440.69,709.00 1453.88,749.00 1453.88,749.00
             1457.70,763.47 1460.82,772.60 1461.00,788.00
             1461.00,788.00 1462.00,812.00 1462.00,812.00
             1462.00,812.00 1463.00,828.00 1463.00,828.00
             1463.00,828.00 1462.00,852.00 1462.00,852.00
             1461.97,873.33 1462.01,866.59 1458.59,887.00
             1458.59,887.00 1455.60,905.89 1455.60,905.89
             1456.10,909.42 1460.16,910.49 1463.00,911.72
             1466.81,913.37 1470.88,915.09 1475.00,915.70
             1479.32,916.34 1483.94,915.82 1487.85,918.28
             1492.69,921.31 1491.09,933.74 1491.00,939.00
             1490.96,941.14 1491.04,943.77 1489.40,945.40
             1487.46,947.35 1483.56,946.97 1481.00,947.00
             1481.00,947.00 1464.00,948.00 1464.00,948.00
             1459.90,948.06 1455.86,948.02 1455.16,953.04
             1455.16,953.04 1455.91,965.00 1455.91,965.00
             1455.91,965.00 1453.59,990.00 1453.59,990.00
             1448.86,1019.99 1450.95,1029.64 1436.74,1059.00
             1432.90,1066.94 1426.65,1080.38 1421.57,1087.00
             1418.38,1091.16 1406.83,1104.38 1405.58,1108.00
             1404.95,1109.85 1405.01,1112.06 1405.00,1114.00
             1405.00,1114.00 1405.00,1131.00 1405.00,1131.00
             1405.00,1131.00 1404.04,1142.00 1404.04,1142.00
             1404.04,1142.00 1401.00,1201.00 1401.00,1201.00
             1401.00,1201.00 1400.17,1210.00 1400.17,1210.00
             1400.17,1210.00 1398.17,1233.00 1398.17,1233.00
             1398.17,1233.00 1394.38,1270.00 1394.38,1270.00
             1394.38,1270.00 1385.60,1296.00 1385.60,1296.00
             1385.60,1296.00 1380.50,1329.00 1380.50,1329.00
             1380.50,1329.00 1370.09,1357.00 1370.09,1357.00
             1370.09,1357.00 1364.23,1396.00 1364.23,1396.00
             1364.23,1396.00 1346.88,1418.00 1346.88,1418.00
             1346.88,1418.00 1338.74,1434.00 1338.74,1434.00
             1338.74,1434.00 1329.32,1451.00 1329.32,1451.00
             1329.32,1451.00 1324.03,1461.96 1324.03,1461.96
             1320.36,1467.42 1313.87,1470.20 1309.96,1476.01
             1309.96,1476.01 1293.39,1505.00 1293.39,1505.00
             1293.39,1505.00 1257.28,1545.00 1257.28,1545.00
             1257.28,1545.00 1238.58,1570.00 1238.58,1570.00
             1238.58,1570.00 1226.37,1586.00 1226.37,1586.00
             1226.37,1586.00 1189.95,1632.00 1189.95,1632.00
             1189.95,1632.00 1174.87,1651.00 1174.87,1651.00
             1173.03,1653.46 1169.11,1658.21 1168.37,1661.00
             1167.37,1664.77 1169.67,1668.66 1171.14,1672.00
             1171.14,1672.00 1179.19,1692.00 1179.19,1692.00
             1182.63,1701.06 1184.06,1707.75 1186.37,1717.00
             1187.47,1721.40 1189.14,1726.50 1188.82,1731.00
             1188.82,1731.00 1187.00,1752.00 1187.00,1752.00
             1186.98,1766.59 1187.38,1763.74 1180.75,1777.00
             1178.79,1780.92 1171.54,1796.11 1168.61,1797.98
             1166.66,1799.22 1163.27,1799.00 1161.00,1799.00
             1161.00,1799.00 492.00,1799.00 492.00,1799.00
             489.22,1799.00 485.28,1799.60 483.72,1796.71
             483.72,1796.71 480.42,1780.00 480.42,1780.00
             480.42,1780.00 475.58,1751.00 475.58,1751.00
             475.14,1747.94 474.03,1739.67 474.67,1737.00
             474.67,1737.00 485.72,1711.00 485.72,1711.00
             494.06,1691.66 502.78,1672.10 509.02,1652.00
             512.04,1642.30 514.98,1636.47 515.00,1626.00
             515.00,1626.00 515.00,1621.00 515.00,1621.00
             515.00,1621.00 516.04,1608.00 516.04,1608.00
             516.04,1608.00 516.04,1593.00 516.04,1593.00
             516.04,1593.00 517.00,1581.00 517.00,1581.00
             517.00,1581.00 517.00,1548.00 517.00,1548.00
             517.00,1548.00 517.82,1536.00 517.82,1536.00
             517.82,1536.00 517.00,1521.00 517.00,1521.00
             517.00,1521.00 516.00,1507.00 516.00,1507.00
             516.00,1507.00 514.00,1468.00 514.00,1468.00
             513.82,1452.69 508.84,1445.52 502.86,1432.00
             498.14,1421.32 482.65,1384.61 480.43,1375.00
             480.43,1375.00 466.85,1314.00 466.85,1314.00
             466.85,1314.00 456.15,1283.00 456.15,1283.00
             453.23,1272.32 446.57,1243.02 440.93,1235.23
             438.46,1231.82 433.83,1231.57 430.00,1230.80
             414.92,1227.78 418.22,1227.82 403.00,1228.00
             403.00,1228.00 393.00,1228.59 393.00,1228.59
             387.19,1228.02 369.13,1220.85 363.00,1218.40
             355.94,1215.57 346.06,1211.56 340.43,1206.47
             337.13,1203.50 330.04,1194.89 327.98,1191.00
             327.98,1191.00 324.03,1183.00 324.03,1183.00
             324.03,1183.00 317.08,1174.00 317.08,1174.00
             317.08,1174.00 312.22,1162.00 312.22,1162.00
             312.22,1162.00 302.26,1145.00 302.26,1145.00
             298.37,1137.03 299.14,1134.93 297.16,1130.00
             297.16,1130.00 292.47,1121.00 292.47,1121.00
             292.47,1121.00 286.50,1087.00 286.50,1087.00
             286.50,1087.00 276.19,1059.00 276.19,1059.00
             276.19,1059.00 269.98,1048.00 269.98,1048.00
             269.98,1048.00 267.06,1040.00 267.06,1040.00
             265.28,1036.48 260.94,1032.07 258.28,1029.00
             258.28,1029.00 240.28,1008.00 240.28,1008.00
             226.59,991.54 214.75,966.71 215.00,945.00
             215.00,945.00 216.00,935.00 216.00,935.00
             216.00,935.00 216.00,926.00 216.00,926.00
             216.33,922.55 219.58,905.98 220.78,903.00
             221.99,899.96 224.81,895.80 226.67,893.00
             236.92,877.58 249.52,868.67 268.00,866.83
             270.39,866.59 272.57,866.01 275.00,866.25
             275.00,866.25 285.00,869.00 285.00,869.00
             285.00,869.00 288.17,842.00 288.17,842.00
             288.53,838.74 290.41,832.73 289.50,830.00
             288.72,827.64 285.30,824.06 283.61,822.00
             283.61,822.00 272.24,807.00 272.24,807.00
             269.85,803.29 265.75,786.91 265.08,782.00
             265.08,782.00 265.08,767.00 265.08,767.00
             265.08,767.00 265.08,756.00 265.08,756.00
             265.08,756.00 264.00,745.00 264.00,745.00
             264.00,745.00 264.00,723.00 264.00,723.00
             264.00,723.00 266.70,696.04 266.70,696.04
             266.62,692.07 265.02,693.31 265.00,684.00
             264.98,674.00 263.09,659.33 269.00,651.00
             263.59,645.51 267.72,644.54 267.44,639.00
             267.19,633.94 263.63,631.59 270.00,628.00 Z" />
</svg>
